<svg width="33" height="33" viewBox="0 0 33 33" fill="none" xmlns="http://www.w3.org/2000/svg">
<path d="M12.7456 22.9877C9.83761 22.6015 7.44076 21.8063 5.55508 20.6022C3.6694 19.3981 2.72656 18.0122 2.72656 16.4446C2.72656 14.5589 4.03881 12.9518 6.66331 11.6232C9.28781 10.2946 12.5194 9.62982 16.358 9.62891C20.1966 9.628 23.4286 10.2928 26.054 11.6232C28.6794 12.9536 29.9912 14.5608 29.9894 16.4446C29.9894 17.7169 29.3705 18.8701 28.1328 19.9043C26.895 20.9384 25.2534 21.7504 23.2077 22.3402C22.8442 22.4538 22.5207 22.4029 22.2372 22.1875C21.9537 21.9721 21.8114 21.6818 21.8105 21.3165C21.8105 20.9075 21.93 20.544 22.169 20.226C22.408 19.9079 22.7202 19.6807 23.1055 19.5444C24.4687 19.09 25.5024 18.5734 26.2067 17.9945C26.9109 17.4156 27.2631 16.899 27.2631 16.4446C27.2631 15.7176 26.2916 14.8543 24.3487 13.8546C22.4058 12.855 19.7422 12.3552 16.358 12.3552C12.9737 12.3552 10.3097 12.855 8.36588 13.8546C6.42204 14.8543 5.45103 15.7176 5.45284 16.4446C5.45284 16.9899 6.03218 17.6433 7.19085 18.4048C8.34952 19.1663 9.99665 19.7398 12.1322 20.1251L11.3143 19.3072C11.0644 19.0573 10.9395 18.7392 10.9395 18.353C10.9395 17.9668 11.0644 17.6487 11.3143 17.3988C11.5643 17.1489 11.8823 17.0239 12.2685 17.0239C12.6548 17.0239 12.9728 17.1489 13.2227 17.3988L16.7669 20.943C17.0395 21.2156 17.1759 21.5337 17.1759 21.8972C17.1759 22.2607 17.0395 22.5787 16.7669 22.8514L13.2227 26.3955C12.9728 26.6454 12.6607 26.7763 12.2863 26.7881C11.9119 26.7999 11.5879 26.6691 11.3143 26.3955C11.0644 26.1456 10.9336 25.8335 10.9218 25.4591C10.9099 25.0847 11.0295 24.7607 11.2803 24.4871L12.7456 22.9877Z" fill="#2770E5"/>
</svg>
