<svg width="24" height="24" viewBox="0 0 24 24" fill="none" xmlns="http://www.w3.org/2000/svg">
<g clip-path="url(#clip0_12003_336)">
<path fill-rule="evenodd" clip-rule="evenodd" d="M11.4971 2.13397C11.6491 2.04621 11.8216 2 11.9971 2C12.1727 2 12.3451 2.04621 12.4971 2.13397L14.4971 3.28897C14.7249 3.42253 14.8907 3.64076 14.9582 3.89606C15.0257 4.15135 14.9894 4.42298 14.8574 4.65167C14.7254 4.88036 14.5082 5.04754 14.2534 5.11672C13.9985 5.18591 13.7267 5.15149 13.4971 5.02097L12.9971 4.73197V5.99997C12.9971 6.26519 12.8918 6.51955 12.7042 6.70708C12.5167 6.89462 12.2623 6.99997 11.9971 6.99997C11.7319 6.99997 11.4776 6.89462 11.29 6.70708C11.1025 6.51955 10.9971 6.26519 10.9971 5.99997V4.73197L10.4971 5.02097C10.2676 5.15149 9.9957 5.18591 9.74086 5.11672C9.48602 5.04754 9.26889 4.88036 9.13685 4.65167C9.00481 4.42298 8.96859 4.15135 9.03609 3.89606C9.10358 3.64076 9.26932 3.42253 9.49712 3.28897L11.4971 2.13397ZM7.06912 5.84497C7.20173 6.07465 7.23766 6.3476 7.16902 6.60377C7.10039 6.85995 6.9328 7.07836 6.70312 7.21098L6.20312 7.49997L7.30112 8.13397C7.41577 8.19916 7.51639 8.28637 7.59719 8.3906C7.67799 8.49483 7.73738 8.61401 7.77193 8.74128C7.80649 8.86856 7.81553 9.00141 7.79853 9.13219C7.78153 9.26297 7.73883 9.38909 7.67289 9.5033C7.60695 9.61751 7.51907 9.71755 7.4143 9.79766C7.30954 9.87777 7.18997 9.93636 7.06247 9.97007C6.93497 10.0038 6.80206 10.0119 6.6714 9.99407C6.54074 9.97621 6.4149 9.93267 6.30112 9.86598L5.20312 9.23198V9.80898C5.20312 10.0742 5.09777 10.3285 4.91023 10.5161C4.7227 10.7036 4.46834 10.809 4.20312 10.809C3.93791 10.809 3.68355 10.7036 3.49602 10.5161C3.30848 10.3285 3.20313 10.0742 3.20312 9.80898V7.49997C3.2033 7.32461 3.2496 7.15238 3.33736 7.00056C3.42511 6.84873 3.55126 6.72266 3.70312 6.63498L5.70312 5.47997C5.9328 5.34737 6.20575 5.31144 6.46192 5.38008C6.7181 5.44871 6.93651 5.6163 7.06912 5.84598V5.84497ZM16.9251 5.84497C17.0577 5.6153 17.2762 5.44771 17.5323 5.37908C17.7885 5.31044 18.0614 5.34637 18.2911 5.47897L20.2911 6.63397C20.4431 6.72174 20.5694 6.84797 20.6571 6.99999C20.7449 7.152 20.7911 7.32444 20.7911 7.49997V9.80998C20.7911 10.0752 20.6858 10.3295 20.4982 10.5171C20.3107 10.7046 20.0563 10.81 19.7911 10.81C19.5259 10.81 19.2716 10.7046 19.084 10.5171C18.8965 10.3295 18.7911 10.0752 18.7911 9.80998V9.23198L17.6931 9.86598C17.4636 9.99649 17.1917 10.0309 16.9369 9.96172C16.682 9.89254 16.4649 9.72536 16.3329 9.49667C16.2008 9.26798 16.1646 8.99635 16.2321 8.74106C16.2996 8.48576 16.4653 8.26753 16.6931 8.13397L17.7911 7.49997L17.2911 7.21098C17.0615 7.07836 16.8939 6.85995 16.8252 6.60377C16.7566 6.3476 16.7925 6.07465 16.9251 5.84497ZM8.53312 9.99998C8.66574 9.7703 8.88415 9.60271 9.14033 9.53408C9.3965 9.46544 9.66945 9.50137 9.89913 9.63397L11.9971 10.845L14.0951 9.63397C14.3247 9.50346 14.5965 9.46904 14.8514 9.53823C15.1062 9.60741 15.3234 9.77459 15.4554 10.0033C15.5874 10.232 15.6237 10.5036 15.5562 10.7589C15.4887 11.0142 15.3229 11.2324 15.0951 11.366L12.9971 12.577V15C12.9971 15.2652 12.8918 15.5195 12.7042 15.7071C12.5167 15.8946 12.2623 16 11.9971 16C11.7319 16 11.4776 15.8946 11.29 15.7071C11.1025 15.5195 10.9971 15.2652 10.9971 15V12.577L8.89913 11.366C8.66945 11.2334 8.50186 11.0149 8.43323 10.7588C8.36459 10.5026 8.40052 10.2297 8.53312 9.99998ZM4.20312 13.19C4.46834 13.19 4.7227 13.2953 4.91023 13.4829C5.09777 13.6704 5.20312 13.9248 5.20312 14.19V14.768L6.30112 14.134C6.53068 14.0035 6.80255 13.969 7.05739 14.0382C7.31223 14.1074 7.52936 14.2746 7.6614 14.5033C7.79344 14.732 7.82966 15.0036 7.76216 15.2589C7.69467 15.5142 7.52893 15.7324 7.30112 15.866L6.20312 16.5L6.70312 16.789C6.81777 16.8542 6.91839 16.9414 6.99919 17.0456C7.07999 17.1498 7.13938 17.269 7.17393 17.3963C7.20849 17.5236 7.21753 17.6564 7.20053 17.7872C7.18353 17.918 7.14083 18.0441 7.07489 18.1583C7.00895 18.2725 6.92107 18.3726 6.8163 18.4527C6.71154 18.5328 6.59197 18.5914 6.46447 18.6251C6.33697 18.6588 6.20406 18.6669 6.0734 18.6491C5.94274 18.6312 5.8169 18.5877 5.70312 18.521L3.70312 17.366C3.55111 17.2782 3.42487 17.152 3.33711 17C3.24934 16.8479 3.20313 16.6755 3.20312 16.5V14.19C3.20312 13.9248 3.30848 13.6704 3.49602 13.4829C3.68355 13.2953 3.93791 13.19 4.20312 13.19ZM19.7911 13.19C20.0563 13.19 20.3107 13.2953 20.4982 13.4829C20.6858 13.6704 20.7911 13.9248 20.7911 14.19V16.5C20.7911 16.6755 20.7449 16.8479 20.6571 17C20.5694 17.152 20.4431 17.2782 20.2911 17.366L18.2911 18.521C18.1774 18.5877 18.0515 18.6312 17.9208 18.6491C17.7902 18.6669 17.6573 18.6588 17.5298 18.6251C17.4023 18.5914 17.2827 18.5328 17.1779 18.4527C17.0732 18.3726 16.9853 18.2725 16.9194 18.1583C16.8534 18.0441 16.8107 17.918 16.7937 17.7872C16.7767 17.6564 16.7858 17.5236 16.8203 17.3963C16.8549 17.269 16.9143 17.1498 16.9951 17.0456C17.0759 16.9414 17.1765 16.8542 17.2911 16.789L17.7911 16.5L16.6931 15.866C16.5785 15.8008 16.4779 15.7136 16.3971 15.6093C16.3163 15.5051 16.2569 15.3859 16.2223 15.2587C16.1878 15.1314 16.1787 14.9985 16.1957 14.8678C16.2127 14.737 16.2554 14.6109 16.3214 14.4966C16.3873 14.3824 16.4752 14.2824 16.5799 14.2023C16.6847 14.1222 16.8043 14.0636 16.9318 14.0299C17.0593 13.9962 17.1922 13.988 17.3229 14.0059C17.4535 14.0237 17.5794 14.0673 17.6931 14.134L18.7911 14.768V14.191C18.7911 13.9258 18.8965 13.6714 19.084 13.4839C19.2716 13.2963 19.5259 13.191 19.7911 13.191V13.19ZM11.9971 17C12.2623 17 12.5167 17.1053 12.7042 17.2929C12.8918 17.4804 12.9971 17.7348 12.9971 18V19.268L13.4971 18.979C13.6109 18.9123 13.7367 18.8687 13.8674 18.8509C13.9981 18.833 14.131 18.8412 14.2585 18.8749C14.386 18.9086 14.5055 18.9672 14.6103 19.0473C14.7151 19.1274 14.8029 19.2274 14.8689 19.3417C14.9348 19.4559 14.9775 19.582 14.9945 19.7128C15.0115 19.8435 15.0025 19.9764 14.9679 20.1037C14.9334 20.2309 14.874 20.3501 14.7932 20.4544C14.7124 20.5586 14.6118 20.6458 14.4971 20.711L12.4971 21.866C12.3451 21.9537 12.1727 22 11.9971 22C11.8216 22 11.6491 21.9537 11.4971 21.866L9.49712 20.711C9.38248 20.6458 9.28186 20.5586 9.20106 20.4544C9.12026 20.3501 9.06087 20.2309 9.02631 20.1037C8.99176 19.9764 8.98272 19.8435 8.99972 19.7128C9.01672 19.582 9.05942 19.4559 9.12536 19.3417C9.1913 19.2274 9.27918 19.1274 9.38395 19.0473C9.48871 18.9672 9.60828 18.9086 9.73578 18.8749C9.86328 18.8412 9.99619 18.833 10.1269 18.8509C10.2575 18.8687 10.3834 18.9123 10.4971 18.979L10.9971 19.268V18C10.9971 17.7348 11.1025 17.4804 11.29 17.2929C11.4776 17.1053 11.7319 17 11.9971 17Z" fill="#FF5E1A"/>
</g>
<defs>
<clipPath id="clip0_12003_336">
<rect width="24" height="24" fill="white"/>
</clipPath>
</defs>
</svg>
