<svg width="24" height="24" viewBox="0 0 24 24" fill="none" xmlns="http://www.w3.org/2000/svg">
<g clip-path="url(#clip0_12003_328)">
<g opacity="0.2">
<path d="M12.7098 7.12705C17.2698 8.34865 20.0358 12.8535 18.8718 17.2011C17.559 22.0971 11.3142 26.0139 8.21335 22.6731C7.22575 21.6099 6.97135 20.4411 7.14535 18.8811C7.17535 18.6111 7.20055 18.4347 7.28095 17.9283C7.47535 16.6899 7.47295 16.2003 7.21615 15.7827C6.96775 15.3795 6.52255 15.2751 5.20255 15.2595L5.07295 15.2571C3.21535 15.2307 2.31295 14.9211 1.85455 13.6215C0.330553 9.31465 7.58935 5.75425 12.7098 7.12705Z" fill="#FF5E1A"/>
<path fill-rule="evenodd" clip-rule="evenodd" d="M16.6146 5.31432C16.0002 5.29032 15.4362 4.90872 15.0474 4.17912C14.379 2.92152 14.2326 1.09872 15.1806 0.594719C16.1286 0.0907188 17.5566 1.23072 18.2262 2.48952C18.5862 3.16752 18.6126 3.80472 18.3546 4.31112C18.5884 4.42917 18.7772 4.62051 18.8922 4.85592L23.8038 14.9359C23.8858 15.1171 23.8957 15.3227 23.8315 15.511C23.7674 15.6992 23.6339 15.856 23.4583 15.9493C23.2827 16.0427 23.0782 16.0657 22.8862 16.0137C22.6943 15.9616 22.5293 15.8384 22.425 15.6691L16.7754 5.98512C16.6573 5.78207 16.6014 5.54884 16.6146 5.31432Z" fill="#FF5E1A"/>
</g>
<path fill-rule="evenodd" clip-rule="evenodd" d="M17.6684 15.9979C18.8324 11.6503 16.0652 7.14553 11.5064 5.92393C6.38595 4.55113 -0.871645 8.11153 0.651155 12.4171C1.11075 13.7179 2.01195 14.0263 3.86955 14.0527L3.99915 14.0551C5.31915 14.0707 5.76435 14.1751 6.01275 14.5783C6.26955 14.9959 6.27195 15.4855 6.07755 16.7239C5.99715 17.2303 5.97195 17.4067 5.94195 17.6767C5.76795 19.2367 6.02235 20.4055 7.00995 21.4687C10.1108 24.8095 16.3556 20.8939 17.6684 15.9979ZM1.78155 12.0175C0.691955 8.93353 6.84195 5.91673 11.1956 7.08313C15.128 8.13673 17.498 11.9947 16.5092 15.6871C15.4004 19.8223 10.1648 23.1055 7.88955 20.6551C7.17675 19.8871 6.99555 19.0555 7.13355 17.8111C7.16235 17.5651 7.18635 17.3983 7.26315 16.9111C7.50315 15.3811 7.49955 14.7079 7.03515 13.9507C6.47715 13.0435 5.76435 12.8779 4.01475 12.8563L3.88635 12.8539C2.49555 12.8347 2.01195 12.6691 1.78155 12.0175Z" fill="#FF5E1A"/>
<path d="M5.69531 11.3998C5.29749 11.3998 4.91596 11.2418 4.63465 10.9605C4.35335 10.6792 4.19531 10.2977 4.19531 9.89984C4.19531 9.50201 4.35335 9.12048 4.63465 8.83918C4.91596 8.55787 5.29749 8.39984 5.69531 8.39984C6.09314 8.39984 6.47467 8.55787 6.75597 8.83918C7.03728 9.12048 7.19531 9.50201 7.19531 9.89984C7.19531 10.2977 7.03728 10.6792 6.75597 10.9605C6.47467 11.2418 6.09314 11.3998 5.69531 11.3998ZM10.4953 11.3998C10.0975 11.3998 9.71596 11.2418 9.43465 10.9605C9.15335 10.6792 8.99531 10.2977 8.99531 9.89984C8.99531 9.50201 9.15335 9.12048 9.43465 8.83918C9.71596 8.55787 10.0975 8.39984 10.4953 8.39984C10.8931 8.39984 11.2747 8.55787 11.556 8.83918C11.8373 9.12048 11.9953 9.50201 11.9953 9.89984C11.9953 10.2977 11.8373 10.6792 11.556 10.9605C11.2747 11.2418 10.8931 11.3998 10.4953 11.3998ZM13.4953 14.9998C13.0975 14.9998 12.716 14.8418 12.4347 14.5605C12.1533 14.2792 11.9953 13.8977 11.9953 13.4998C11.9953 13.102 12.1533 12.7205 12.4347 12.4392C12.716 12.1579 13.0975 11.9998 13.4953 11.9998C13.8931 11.9998 14.2747 12.1579 14.556 12.4392C14.8373 12.7205 14.9953 13.102 14.9953 13.4998C14.9953 13.8977 14.8373 14.2792 14.556 14.5605C14.2747 14.8418 13.8931 14.9998 13.4953 14.9998ZM11.6953 19.1998C11.2975 19.1998 10.916 19.0418 10.6347 18.7605C10.3533 18.4792 10.1953 18.0977 10.1953 17.6998C10.1953 17.302 10.3533 16.9205 10.6347 16.6392C10.916 16.3579 11.2975 16.1998 11.6953 16.1998C12.0931 16.1998 12.4747 16.3579 12.756 16.6392C13.0373 16.9205 13.1953 17.302 13.1953 17.6998C13.1953 18.0977 13.0373 18.4792 12.756 18.7605C12.4747 19.0418 12.0931 19.1998 11.6953 19.1998ZM16.0393 4.32584C16.1816 4.24961 16.3378 4.20287 16.4986 4.18841C16.6593 4.17396 16.8214 4.19209 16.975 4.24172C17.1286 4.29136 17.2706 4.37147 17.3925 4.47726C17.5144 4.58306 17.6137 4.71236 17.6845 4.85744L22.5961 14.9374C22.6781 15.1186 22.688 15.3242 22.6239 15.5125C22.5597 15.7007 22.4263 15.8575 22.2507 15.9509C22.0751 16.0442 21.8705 16.0672 21.6786 16.0152C21.4866 15.9631 21.3217 15.8399 21.2173 15.6706L15.5677 5.98664C15.4868 5.84724 15.4349 5.69299 15.4149 5.53307C15.3949 5.37316 15.4074 5.21086 15.4515 5.05586C15.4956 4.90086 15.5705 4.75634 15.6717 4.63092C15.7729 4.50549 15.8983 4.40174 16.0405 4.32584" fill="#FF5E1A"/>
<path fill-rule="evenodd" clip-rule="evenodd" d="M13.8453 4.17862C14.4285 5.27662 15.4113 5.58382 16.3617 5.07862C17.3109 4.57462 17.6073 3.58702 17.0229 2.48902C16.3557 1.23142 14.9253 0.0914205 13.9773 0.594221C13.0293 1.09702 13.1757 2.92102 13.8453 4.17862ZM14.9037 3.61462C14.6921 3.18759 14.5619 2.72491 14.5197 2.25022C14.5022 2.05169 14.5094 1.85175 14.5413 1.65502L14.5629 1.66582C14.6229 1.69462 14.8089 1.78102 15.0465 1.97062C15.4089 2.25982 15.7689 2.68582 15.9633 3.05182C16.2381 3.56782 16.1601 3.82702 15.7977 4.02022C15.4377 4.21222 15.1785 4.13062 14.9037 3.61582" fill="#FF5E1A"/>
</g>
<defs>
<clipPath id="clip0_12003_328">
<rect width="24" height="24" fill="white"/>
</clipPath>
</defs>
</svg>
